<?xml version="1.0" encoding="utf-8"?>
<!-- Generator: Adobe Illustrator 21.0.0, SVG Export Plug-In . SVG Version: 6.00 Build 0)  -->
<svg version="1.1" id="Layer_1" xmlns="http://www.w3.org/2000/svg" xmlns:xlink="http://www.w3.org/1999/xlink" x="0px" y="0px"
	 viewBox="0 0 659.201 12.622" style="enable-background:new 0 0 659.201 12.622;" xml:space="preserve">
<style type="text/css">
	.st0{fill:#589975;}
</style>
<path class="st0" d="M8.229,12.622V7.923H3.745v4.699H0V0h3.745v5.023h4.483V0h3.745v12.622H8.229z"/>
<path class="st0" d="M22.34,12.622h-3.745V8.697L13.967,0h3.745l2.755,5.149L23.15,0h3.727L22.34,8.625V12.622z"/>
<path class="st0" d="M34.615,0c3.259,0,5.131,1.621,5.131,4.483c0,3.007-1.873,4.735-5.131,4.735h-1.98v3.403H28.89V0H34.615z
	 M32.635,6.338h1.8c1.116,0,1.765-0.612,1.765-1.746c0-1.099-0.648-1.711-1.765-1.711h-1.8V6.338z"/>
<path class="st0" d="M50.492,12.622V7.923h-4.483v4.699h-3.745V0h3.745v5.023h4.483V0h3.745v12.622H50.492z"/>
<path class="st0" d="M64.604,12.622h-3.745V8.697L56.231,0h3.745l2.755,5.149L65.414,0h3.727l-4.537,8.625V12.622z"/>
<rect x="80.735" y="5.515" class="st0" width="578.466" height="0.5"/>
</svg>
