<?xml version="1.0" encoding="utf-8"?>
<!-- Generator: Adobe Illustrator 21.0.0, SVG Export Plug-In . SVG Version: 6.00 Build 0)  -->
<svg version="1.1" id="Layer_1" xmlns="http://www.w3.org/2000/svg" xmlns:xlink="http://www.w3.org/1999/xlink" x="0px" y="0px"
	 viewBox="0 0 30 30" style="enable-background:new 0 0 30 30;" xml:space="preserve">
<style type="text/css">
	.st0{fill:#E6E6E6;}
	.st1{fill:#666666;}
</style>
<g>
	<circle class="st0" cx="15" cy="15" r="15.056"/>
	<path class="st1" d="M20.655,13.655V12.24l-1.682-0.274c-0.1-0.398-0.256-0.773-0.463-1.116l0.981-1.398l-1-0.999l-1.38,0.992
		c-0.344-0.208-0.721-0.368-1.122-0.467l-0.294-1.674h-1.414l-0.272,1.669c-0.402,0.098-0.781,0.255-1.125,0.462l-1.376-0.983
		l-1,0.999l0.968,1.384c-0.21,0.347-0.368,0.725-0.47,1.129L9.345,12.24v1.414l1.66,0.294c0.1,0.404,0.26,0.783,0.469,1.13
		l-0.981,1.371l1,1l1.386-0.97c0.346,0.208,0.724,0.365,1.125,0.464l0.278,1.67h1.414l0.297-1.674
		c0.399-0.101,0.776-0.26,1.12-0.469l1.395,0.98l0.999-1l-0.996-1.383c0.206-0.344,0.363-0.719,0.462-1.118L20.655,13.655z
		 M15,14.931c-1.089,0-1.972-0.882-1.972-1.972c0-1.088,0.883-1.971,1.972-1.971s1.971,0.883,1.971,1.971
		C16.972,14.048,16.089,14.931,15,14.931z"/>
	<path class="st1" d="M22.419,18.94v2.146c0,0.296-0.302,0.537-0.674,0.537H8.256c-0.372,0-0.674-0.241-0.674-0.537V18.94H6.232
		v2.146c0,0.889,0.906,1.61,2.023,1.61h13.489c1.117,0,2.023-0.721,2.023-1.61V18.94H22.419z"/>
</g>
</svg>
