<?xml version="1.0" encoding="utf-8"?>
<!-- Generator: Adobe Illustrator 21.0.0, SVG Export Plug-In . SVG Version: 6.00 Build 0)  -->
<svg version="1.1" id="Layer_1" xmlns="http://www.w3.org/2000/svg" xmlns:xlink="http://www.w3.org/1999/xlink" x="0px" y="0px"
	 viewBox="0 0 230 230" style="enable-background:new 0 0 230 230;" xml:space="preserve">
<style type="text/css">
	.st0{display:none;}
	.st1{font-family:'Montserrat-Bold';}
	.st2{font-size:41px;}
	.st3{letter-spacing:5;}
	.st4{fill:#428765;}
</style>
<text transform="matrix(1 0 0 1 35.663 209.9899)" class="st0 st1 st2 st3">HyPhy</text>
<g>
	<g>
		<path class="st4" d="M99.7,66.5c1.4-0.5,4.4,0.7,4.4,0.7s2,2,4.3,0.9c0-4.5,0.1-6.6-3.8-6.6C100.7,61.4,98.4,67,99.7,66.5z"/>
	</g>
	<g>
		<path class="st4" d="M150.2,59.1c-0.3,0-0.7,0.1-1,0.1c-0.4,0-0.9,0.1-1.4,0.2c1.2,1.4,1.5,3.4,0.9,5.3c-1,2.8-4.2,4.2-6.9,3.1
			c-1.4-0.5-2.5-1.6-3.1-2.9c-2,2.6-3.2,5.8-3.2,9.3c0,8.3,6.5,15,14.6,15c1.9,0,3.6-0.4,5.2-1c2.8-1.1,5.2-3,6.8-5.4
			s2.6-5.4,2.6-8.5C164.8,65.9,158.3,59.1,150.2,59.1z"/>
	</g>
	<g>
		<path class="st4" d="M199.7,66.6c-1.6,0-3.2,0.2-4.8,0.4c-0.1-0.3-0.2-0.4-0.2-0.7c-0.2-0.6-0.3-1.2-0.5-1.8
			c-0.3-1.2-0.8-2.4-1.2-3.6s-0.9-2.3-1.4-3.5c-0.5-1.1-0.9-2.3-1.5-3.4c-0.5-1.1-1.1-2.2-1.7-3.3s-1.2-2.1-1.8-3.2
			c-0.6-1-1.3-2.1-2-3.1s-1.4-2-2.1-3c-0.8-1-1.5-2-2.3-2.9s-1.6-1.9-2.4-2.8c-0.9-0.9-1.7-1.8-2.6-2.6s-1.8-1.7-2.6-2.6
			c-0.9-0.9-1.9-1.6-2.8-2.4s-2-1.5-2.9-2.3c-1-0.8-2-1.4-3.1-2.1s-2-1.4-3.1-2c-1.1-0.7-2.1-1.3-3.2-1.9s-2.2-1.2-3.3-1.8
			s-2.3-1.1-3.5-1.6s-2.4-1-3.6-1.4s-2.4-0.9-3.7-1.3c-1.2-0.4-2.5-0.8-3.7-1.1c-1.3-0.3-2.6-0.7-3.8-1c-1.3-0.3-2.6-0.6-3.8-0.9
			s-2.6-0.4-3.9-0.7c-1.4-0.2-2.6-0.3-4-0.5s-2.7-0.3-4.1-0.3c-1.3,0-2.6-0.1-4-0.1c-0.2,0-0.3,0-0.6,0
			C71.9,9.3,36.3,40.3,33.9,81.8c-0.1,1-0.1,2-0.1,3c0,0.4,0,0.9,0,1.4c0,0.8,0,1.8,0.1,2.6c0,0.8,0.1,1.5,0.1,2.2h-6.4h-0.9
			c-0.3-0.8-0.6-1.5-1-2.2c-0.5-0.9-1-1.6-1.7-2.3c-0.7-0.7-1.4-1.3-2.2-1.8c-0.9-0.5-1.8-0.9-2.8-1.3c-1-0.3-2-0.4-3.1-0.4
			c-0.2,0-0.3,0-0.4,0c-2.2,0.1-4.3,0.8-6,2c-1.2,0.9-2.2,1.9-3.1,3.1c-1.2,1.7-2,3.8-2,6c0,0.2,0,0.3,0,0.4c0,1.1,0.2,2.1,0.4,3.1
			c0.3,1,0.7,2,1.3,2.8c0.5,0.9,1.1,1.6,1.8,2.2c0.7,0.7,1.4,1.3,2.3,1.7c0.9,0.5,1.9,0.9,2.9,1.2c0.9,0.3,1.9,0.3,2.8,0.3
			c0.3,0,0.5-0.1,0.8-0.1c0.1,0,0.1,0,0.2,0c4.4-0.3,8.2-3.2,9.7-7.2h1.6h4h1.6h1c0.1,0,0.3,2.1,0.4,2.3c0.2,0.8,0.3,1.5,0.5,2.3
			c0.3,1.5,0.8,3.1,1.2,4.6c0.9,3,2,5.9,3.2,8.8c1.3,2.8,2.7,5.5,4.3,8.2c1.6,2.6,3.3,5.1,5.3,7.6c2,2.6,4.3,5.1,6.6,7.4
			c1.7,1.7,3.6,3.3,5.4,4.8c1.1,0.9,2.2,1.7,3.3,2.5c1.1,0.9,2.3,1.6,3.5,2.4c1.2,0.8,2.5,1.5,3.7,2.2c1.3,0.7,2.5,1.4,3.8,2
			c1.3,0.7,2.6,1.3,4,1.9s2.8,1.2,4.2,1.7c1.4,0.5,2.9,1,4.4,1.5c1.2,0.4,2.5,0.8,3.7,1.1c0.3,0.1,0.6,0.2,0.9,0.3
			c1.5,0.4,3.1,0.9,4.7,1.3c1.6,0.3,3.2,0.7,4.9,0.9c0.4,0.1,0.9,0.2,1.4,0.2c0.3,1.1,0.8,2.1,1.4,3c0.8,1.2,1.7,2.2,2.9,3.1
			c0.4,0.3,0.8,0.6,1.2,0.8c0.1,0,0.1,0.1,0.2,0.1c1.6,0.9,3.4,1.4,5.4,1.4c1.4,0,2.6-0.3,3.8-0.7c0.5-0.2,0.9-0.3,1.4-0.6
			c0.1,0,0.2-0.1,0.2-0.1c0.2-0.1,0.3-0.2,0.5-0.3c2.4-1.4,4.3-3.7,5.1-6.5c0-0.1,0-0.2,0.1-0.3c0-0.1,0.1-0.2,0.1-0.3
			c0.3-0.9,0.4-1.9,0.4-2.9c0-3.4-1.4-6.4-3.7-8.5c-1.1-1-2.5-1.8-3.9-2.3c0,0-0.1,0-0.1-0.1v-2.1v-6v-2.3v-2v-1.4v-6l0,0h-2.3h-1
			h-1c-0.5,0-0.5,0-1.7,0c-1.8-0.1-3.5-0.3-5.3-0.6c-1.6-0.3-3.2-0.7-4.8-1.1s-3-0.9-4.3-1.5s-2.7-1.2-4-2c-1.3-0.7-2.5-1.4-3.7-2.3
			c-1.2-0.8-2.3-1.7-3.3-2.5c-1-0.9-2-1.9-3-2.9s-1.9-2.1-2.7-3.2s-1.6-2.3-2.4-3.6s-1.4-2.5-2-3.9s-1.1-2.9-1.5-4.3
			c-0.2-0.7-0.3-1.4-0.5-2h2.5h5.7h5.9h5.9h5.9h5.9h5.9h3.1v-3.1v-4.4c0,0-0.5,0-1.4,0c-1.3,0-3.4,0-5.9,0c-1.8,0-3.7,0-5.9,0
			c-1.9,0-3.9,0-5.9,0s-4,0-5.9,0c-2,0-4.1,0-5.9,0c-2.2,0-4.3,0-5.9,0c-3.1,0-4.9,0-4.9,0c0-0.3,0-0.7,0-0.9
			c0.1-2.3,0.3-4.6,0.9-6.7c0.4-2,1.1-4,1.9-5.9c3.7-8.9,11-16.1,20.3-20.3c2-0.9,4.1-1.6,6.2-2.2c2.3-0.6,4.7-1,7.2-1.3
			c1.1-0.1,2.3-0.2,3.4-0.2c0.3,0,1.5,0,2.6,0c0.9,0,1.6,0,1.6,0s0.3-1.4,0.4-2c0-0.1,0.1-0.2,0.1-0.3c0.2-0.5,0.3-1,0.6-1.5
			c0.3-0.6,0.5-1.2,0.9-1.8c0.1-0.3,0.3-0.4,0.3-0.7c0.1-0.1,0.2-0.3,0.2-0.3c0-0.1,0.1-0.1,0.1-0.2c0-0.1,0.1-0.1,0.1-0.2
			c0.9-1.5,4.2-5.6,10.9-8.2c2.2-0.9,4.8-1.6,7.9-2c2-0.3,4-0.4,6.3-0.3c0.5,0,1.1,0,1.7,0.1c1.3,0.1,2.6,0.2,3.8,0.4
			c1.6,0.3,3.2,0.7,4.8,1.2c1.4,0.5,2.8,1.1,4.2,1.8c1.3,0.7,2.6,1.4,3.7,2.2c1.2,0.8,2.3,1.7,3.3,2.6s2,1.9,3,2.9
			c0.9,1,1.9,2.1,2.7,3.2c0.9,1.2,1.7,2.3,2.4,3.5c0.8,1.3,1.5,2.6,2.1,3.7c0.7,1.4,1.4,2.7,1.9,4.1c0.6,1.5,1.1,3,1.5,4.3
			c0.3,1.1,0.6,2.2,0.8,3.3c0.3,1.2,0.4,2.3,0.7,3.5c-5.6,4.8-9.3,11.8-9.3,19.8c0,14.3,11.6,25.8,25.8,25.8s25.8-11.6,25.8-25.8
			C225.4,78.2,213.9,66.6,199.7,66.6z M11.2,94.4c0-2.6,2.1-4.7,4.7-4.7s4.7,2.1,4.7,4.7s-2.1,4.7-4.7,4.7S11.2,97,11.2,94.4z
			 M120,159.6c0,2.6-2.1,4.7-4.7,4.7s-4.7-2.1-4.7-4.7c0-2.6,2.1-4.7,4.7-4.7S120,157.1,120,159.6z M133.1,25.7
			c-2.5,0.7-4.7,1.6-6.7,2.6c-6.5,3.6-10.5,8.8-12.7,12.8c-1.4,2.6-2.1,4.4-2.3,4.8c0,0.1,0,0.1,0,0.1c-1,0.1-2,0.2-2.9,0.3
			c-1.7,0.3-3.3,0.5-4.9,0.9c-2,0.4-3.9,1-5.7,1.7c-2.6,0.9-5.1,2.1-7.5,3.5C83.1,56.7,76.9,62.8,72.9,70c-1.3,2.3-2.4,4.8-3.2,7.3
			c-0.6,1.8-1.1,3.7-1.4,5.5c-0.3,1.5-0.5,3.1-0.7,4.7c-0.1,1.2-0.2,2.4-0.2,3.6c0,0.3,0,0.4,0,0.7c0,1.9,0.2,3.7,0.4,5.5
			c0.3,1.7,0.6,3.3,1,4.9c0.4,1.5,0.9,3,1.4,4.4s1.2,2.7,1.9,4.1c0.7,1.3,1.4,2.5,2.1,3.7s1.6,2.4,2.5,3.5s1.8,2.1,2.7,3.1
			s2,2,3,2.9s2.1,1.8,3.2,2.6s2.3,1.6,3.6,2.4s2.5,1.4,3.8,2.1c1.4,0.7,2.7,1.3,4.1,1.8c1.4,0.6,2.9,1,4.4,1.4s3.1,0.9,4.8,1.1
			c1.7,0.3,3.4,0.5,5.1,0.7v0.2v6v6v0.6c0,0,0,0-0.1,0c-1.4,0.5-2.6,1.3-3.7,2.2c-15-1.5-28.8-7.2-39.8-16.6c-0.8-0.6-1.4-1.3-2.2-2
			c-13-12.1-20.2-28.6-20.2-46.2S52.5,52.1,65.6,40c11.8-11,27.3-17.5,44.1-18.7c0.5,0,1.1-0.1,1.6-0.1c0.7,0,1.4-0.1,2.1-0.1
			s1.3-0.1,2-0.1s1.4,0,2,0.1c1.3,0,2.6,0.1,3.8,0.2c1.2,0.1,2.5,0.2,3.7,0.3s2.4,0.3,3.5,0.5s2.3,0.4,3.4,0.7
			c1.1,0.3,2.2,0.5,3.2,0.8c1.4,0.3,2.6,0.7,3.9,1.1C137,24.8,135,25.1,133.1,25.7z M199.7,105.5c-7.2,0-13.1-5.9-13.1-13.1
			s5.9-13.1,13.1-13.1c7.2,0,13.1,5.9,13.1,13.1C212.8,99.6,206.9,105.5,199.7,105.5z"/>
	</g>
	<g>
		<path class="st4" d="M59.5,208.8v-11.2H47.6v11.2h-7.3v-28.7h7.3v11.8h11.9v-11.8h7.3v28.7H59.5z"/>
		<path class="st4" d="M89.9,211.1c-1.6,4-4.4,6-8.5,6c-2.5,0-4.5-0.7-6.4-2.3l3-4.8c1,0.8,1.9,1.2,2.9,1.2c1.3,0,2.2-0.6,2.7-1.8
			l0.5-1.1l-9.2-21.6h7.3l5.4,14.7l4.8-14.7h7.1L89.9,211.1z"/>
		<path class="st4" d="M120.3,180.1c7.3,0,11.6,3.6,11.6,10c0,6.7-4.2,10.6-11.6,10.6H115v8.1h-7.3v-28.7H120.3z M115,195h4.8
			c3.2,0,5-1.6,5-4.6c0-3-1.8-4.5-5-4.5H115V195z"/>
		<path class="st4" d="M163.3,194.9v13.9h-7.1v-12c0-2.6-1.5-4.2-3.9-4.2c-2.8,0-4.5,2.2-4.5,5.2v10.9h-7.1v-30.4h7.1v12
			c1.6-2.6,4.1-3.9,7.4-4C160.1,186.4,163.3,189.7,163.3,194.9z"/>
		<path class="st4" d="M185.4,211.1c-1.6,4-4.4,6-8.5,6c-2.5,0-4.5-0.7-6.4-2.3l3-4.8c1,0.8,1.9,1.2,2.9,1.2c1.3,0,2.2-0.6,2.7-1.8
			l0.5-1.1l-9.2-21.6h7.3l5.4,14.7l4.8-14.7h7.1L185.4,211.1z"/>
	</g>
</g>
</svg>
