<?xml version="1.0" encoding="utf-8"?>
<!-- Generator: Adobe Illustrator 21.0.0, SVG Export Plug-In . SVG Version: 6.00 Build 0)  -->
<svg version="1.1" id="Layer_1" xmlns="http://www.w3.org/2000/svg" xmlns:xlink="http://www.w3.org/1999/xlink" x="0px" y="0px"
	 viewBox="0 0 30 30" style="enable-background:new 0 0 30 30;" xml:space="preserve">
<style type="text/css">
	.st0{fill:#E6E6E6;}
	.st1{fill:#666666;}
</style>
<g>
	<circle class="st0" cx="15" cy="15" r="15"/>
	<path class="st1" d="M20.001,13.141h-2.997V7.647c0-0.146-0.047-0.265-0.141-0.359c-0.093-0.093-0.213-0.14-0.358-0.14h-2.997
		c-0.146,0-0.265,0.047-0.359,0.14c-0.094,0.094-0.141,0.213-0.141,0.359v5.494h-2.997c-0.229,0-0.385,0.104-0.468,0.312
		C9.46,13.651,9.496,13.833,9.652,14l4.995,4.995c0.115,0.094,0.234,0.14,0.359,0.14c0.125,0,0.244-0.047,0.359-0.14l4.979-4.979
		c0.104-0.125,0.156-0.25,0.156-0.375c0-0.146-0.047-0.265-0.141-0.359C20.266,13.188,20.147,13.141,20.001,13.141z"/>
	<path class="st1" d="M22.417,19.097v2.146c0,0.296-0.302,0.536-0.674,0.536H8.257c-0.372,0-0.674-0.241-0.674-0.536v-2.146H6.234
		v2.146c0,0.888,0.906,1.609,2.023,1.609h13.486c1.117,0,2.023-0.721,2.023-1.609v-2.146H22.417z"/>
</g>
</svg>
