<?xml version="1.0" encoding="utf-8"?>
<!-- Generator: Adobe Illustrator 21.0.0, SVG Export Plug-In . SVG Version: 6.00 Build 0)  -->
<svg version="1.1" id="Layer_1" xmlns="http://www.w3.org/2000/svg" xmlns:xlink="http://www.w3.org/1999/xlink" x="0px" y="0px"
	 viewBox="0 0 30 30" style="enable-background:new 0 0 30 30;" xml:space="preserve">
<style type="text/css">
	.st0{fill:#E6E6E6;}
	.st1{fill:#666666;}
</style>
<g>
	<circle class="st0" cx="15" cy="15" r="15"/>
	<path class="st1" d="M16.859,17.156c-0.268,0-0.485,0.194-0.485,0.434v4.123l-1.45-1.196c-0.089-0.073-0.203-0.123-0.324-0.123
		H7.576c-0.758,0-1.386-0.533-1.386-1.211v-4.883c0-0.678,0.628-1.233,1.386-1.233h5.978V12.2H7.576
		c-1.292,0-2.356,0.945-2.356,2.101v4.883c0,1.156,1.063,2.078,2.356,2.078h6.837l2.126,1.745c0.091,0.074,0.208,0.118,0.327,0.118
		c0.066,0,0.129-0.01,0.192-0.035c0.176-0.069,0.286-0.223,0.286-0.394V17.59C17.344,17.35,17.127,17.156,16.859,17.156z"/>
	<path class="st1" d="M22.451,7.188H15.02c-1.292,0-2.364,0.929-2.364,2.085V12.2v0.868v4.599c0,0.172,0.123,0.328,0.299,0.397
		c0.176,0.069,0.386,0.039,0.528-0.076l1.779-1.451c0.046-0.038,0.089-0.072,0.127-0.104c0.096-0.079,0.196-0.161,0.236-0.185
		c0.039-0.004,0.139-0.003,0.228-0.002c0.085,0.002,0.186,0.002,0.309,0.002h6.289c1.292,0,2.328-0.938,2.328-2.094V9.272
		C24.78,8.116,23.744,7.188,22.451,7.188z"/>
</g>
</svg>
