<?xml version="1.0" encoding="utf-8"?>
<!-- Generator: Adobe Illustrator 21.0.0, SVG Export Plug-In . SVG Version: 6.00 Build 0)  -->
<svg version="1.1" id="Layer_1" xmlns="http://www.w3.org/2000/svg" xmlns:xlink="http://www.w3.org/1999/xlink" x="0px" y="0px"
	 viewBox="0 0 30 30" style="enable-background:new 0 0 30 30;" xml:space="preserve">
<style type="text/css">
	.st0{fill:#E6E6E6;}
	.st1{fill:#666666;}
</style>
<g>
	<circle class="st0" cx="15" cy="15" r="15"/>
	<path class="st1" d="M20.656,10.868l-7.655-3.946c-1.048-0.552-3.116,0.515-3.71,1.454c-0.265,0.42-0.246,0.723-0.246,0.894
		l0.094,8.91c0.006,0.189,0.245,0.444,0.449,0.57c0.425,0.26,6.856,4.276,7.038,4.389c0.098,0.061,0.214,0.089,0.328,0.089
		c0.097,0,0.195-0.022,0.283-0.065c0.193-0.095,0.314-0.279,0.314-0.48v-9.359c0-0.195-0.114-0.375-0.299-0.472l-6.958-3.884
		c0.079-0.153,0.388-0.477,0.957-0.774c0.599-0.314,1.048-0.195,1.151-0.155c0,0,6.677,3.573,6.882,3.68
		c0.203,0.106,0.207,0.122,0.207,0.304c0,0.182,0,8.881,0,8.881c0,0.443,0.45,0.624,0.78,0.624c0.33,0,0.682-0.323,0.682-0.624
		V11.34C20.955,11.146,20.84,10.965,20.656,10.868z"/>
</g>
</svg>
