<?xml version="1.0" encoding="utf-8"?>
<!-- Generator: Adobe Illustrator 21.0.0, SVG Export Plug-In . SVG Version: 6.00 Build 0)  -->
<svg version="1.1" id="Layer_1" xmlns="http://www.w3.org/2000/svg" xmlns:xlink="http://www.w3.org/1999/xlink" x="0px" y="0px"
	 viewBox="0 0 30 30" style="enable-background:new 0 0 30 30;" xml:space="preserve">
<style type="text/css">
	.st0{fill:#E6E6E6;}
	.st1{fill:#666666;}
</style>
<g>
	<circle class="st0" cx="15" cy="15" r="15"/>
	<path class="st1" d="M15.176,6.902L4.079,15.175l0.187,0.293c0.031,0.049,0.323,0.481,0.925,0.596
		c0.098,0.019,0.197,0.028,0.297,0.028c0.435,0,0.901-0.175,1.388-0.523l0.591-0.423v5.555c-0.001,0.145,0.028,0.525,0.33,0.839
		c0.224,0.234,0.541,0.362,0.893,0.362l5.542-0.006l0.005-3.897l1.53,0.003l-0.009,3.885h5.444c0.502,0,0.812-0.216,0.984-0.396
		c0.346-0.364,0.351-0.804,0.346-0.888v-5.386l0.433,0.328c1.944,1.183,2.77-0.11,2.778-0.124l0.175-0.286L15.176,6.902z
		 M17.427,20.223l0.003-2.435c0.024-0.273-0.054-0.677-0.344-0.992c-0.194-0.211-0.554-0.463-1.171-0.463h-1.952
		c-0.55,0-0.879,0.24-1.058,0.441c-0.269,0.302-0.345,0.689-0.328,0.975l-0.005,2.484l-3.44,0.004v-5.87l6.053-4.397l5.685,4.382
		l0.001,5.871H17.427z"/>
</g>
</svg>
