<?xml version="1.0" encoding="utf-8"?>
<!-- Generator: Adobe Illustrator 19.0.0, SVG Export Plug-In . SVG Version: 6.00 Build 0)  -->
<svg version="1.1" id="Layer_1" xmlns="http://www.w3.org/2000/svg" xmlns:xlink="http://www.w3.org/1999/xlink" x="0px" y="0px"
	 viewBox="-364 166 230 230" style="enable-background:new -364 166 230 230;" xml:space="preserve">
<style type="text/css">
	.st0{fill:#428765;}
	.st1{fill:url(#SVGID_1_);}
	.st2{fill:url(#SVGID_2_);}
</style>
<path class="st0" d="M-264.173,235.653c1.36-0.51,4.42,0.68,4.42,0.68s2.04,2.04,4.25,0.85c0-4.505,0.085-6.63-3.825-6.63
	S-265.533,236.163-264.173,235.653z"/>
<linearGradient id="SVGID_1_" gradientUnits="userSpaceOnUse" x1="-226.2903" y1="-57.1676" x2="-200.7348" y2="-42.413" gradientTransform="matrix(1 0 0 -1 0 194)">
	<stop  offset="0.0905" style="stop-color:#428765"/>
	<stop  offset="0.3745" style="stop-color:#438A65"/>
	<stop  offset="0.6147" style="stop-color:#459565"/>
	<stop  offset="0.8381" style="stop-color:#48A665"/>
	<stop  offset="1" style="stop-color:#4CB865"/>
</linearGradient>
<path class="st1" d="M-213.683,228.343c-0.34,0-0.68,0.085-1.02,0.085c-0.425,0-0.935,0.085-1.36,0.17
	c1.19,1.445,1.53,3.4,0.85,5.27c-1.02,2.805-4.165,4.165-6.885,3.145c-1.445-0.51-2.465-1.615-3.06-2.89
	c-1.955,2.55-3.23,5.78-3.23,9.265c0,8.33,6.545,15.045,14.62,15.045c1.87,0,3.57-0.425,5.185-1.02
	c2.805-1.105,5.185-2.975,6.8-5.44s2.635-5.355,2.635-8.5C-199.063,235.058-205.608,228.343-213.683,228.343z"/>
<linearGradient id="SVGID_2_" gradientUnits="userSpaceOnUse" x1="-359.458" y1="-65.198" x2="-138.5425" y2="-65.198" gradientTransform="matrix(1 0 0 -1 0 194)">
	<stop  offset="0.0905" style="stop-color:#428765"/>
	<stop  offset="0.424" style="stop-color:#459765"/>
	<stop  offset="0.9452" style="stop-color:#60AF65"/>
</linearGradient>
<path class="st2" d="M-164.213,235.823c-1.615,0-3.23,0.17-4.845,0.425c-0.085-0.255-0.17-0.425-0.17-0.68
	c-0.17-0.595-0.34-1.19-0.51-1.785c-0.34-1.19-0.765-2.38-1.19-3.57s-0.85-2.295-1.36-3.485c-0.51-1.105-0.935-2.295-1.53-3.4
	c-0.51-1.105-1.105-2.21-1.7-3.315c-0.595-1.105-1.19-2.125-1.785-3.23c-0.595-1.02-1.275-2.125-1.955-3.06
	c-0.68-1.02-1.36-2.04-2.125-2.975c-0.765-1.02-1.53-1.955-2.295-2.89s-1.615-1.87-2.38-2.805c-0.85-0.935-1.7-1.785-2.55-2.635
	s-1.785-1.7-2.635-2.55c-0.935-0.85-1.87-1.615-2.805-2.38c-0.935-0.765-1.955-1.53-2.89-2.295c-1.02-0.765-2.04-1.445-3.06-2.125
	c-1.02-0.68-2.04-1.36-3.145-2.04c-1.105-0.68-2.125-1.275-3.23-1.87s-2.21-1.19-3.315-1.785s-2.295-1.105-3.485-1.615
	c-1.19-0.51-2.38-1.02-3.57-1.445s-2.38-0.935-3.655-1.275c-1.19-0.425-2.465-0.765-3.74-1.105c-1.275-0.34-2.55-0.68-3.825-1.02
	c-1.275-0.34-2.55-0.595-3.825-0.85c-1.275-0.255-2.635-0.425-3.91-0.68c-1.36-0.17-2.635-0.34-3.995-0.51
	c-1.36-0.17-2.72-0.255-4.08-0.255c-1.275,0-2.635-0.085-3.995-0.085c-0.17,0-0.34,0-0.595,0c-43.605,0-79.22,30.94-81.6,72.42
	c-0.085,1.02-0.085,2.04-0.085,2.975c0,0.425,0,0.935,0,1.36c0,0.85,0,1.785,0.085,2.635c0,0.765,0.085,1.53,0.085,2.21h-6.375
	h-0.85c-0.255-0.765-0.595-1.53-1.02-2.21c-0.51-0.85-1.02-1.615-1.7-2.295c-0.68-0.68-1.445-1.275-2.21-1.785
	c-0.85-0.51-1.785-0.935-2.805-1.275c-1.02-0.255-2.04-0.425-3.145-0.425c-0.17,0-0.255,0-0.425,0
	c-2.21,0.085-4.25,0.765-5.95,1.955c-1.19,0.85-2.21,1.87-3.06,3.06c-1.19,1.7-1.955,3.825-2.04,6.035c0,0.17,0,0.255,0,0.425
	c0,1.105,0.17,2.125,0.425,3.145c0.255,1.02,0.68,1.955,1.275,2.805c0.51,0.85,1.105,1.615,1.785,2.21
	c0.68,0.68,1.445,1.275,2.295,1.7c0.85,0.51,1.87,0.935,2.89,1.19c0.935,0.255,1.87,0.34,2.805,0.34c0.255,0,0.51-0.085,0.765-0.085
	c0.085,0,0.085,0,0.17,0c4.42-0.34,8.16-3.23,9.69-7.225h1.615h3.995h1.615h1.02c0.085,0,0.34,2.125,0.425,2.295
	c0.17,0.765,0.34,1.53,0.51,2.295c0.34,1.53,0.765,3.06,1.19,4.59c0.935,2.975,1.955,5.865,3.23,8.755
	c1.275,2.805,2.72,5.525,4.25,8.16c1.615,2.635,3.315,5.1,5.27,7.565c2.04,2.635,4.25,5.1,6.63,7.395c1.7,1.7,3.57,3.315,5.44,4.845
	c1.105,0.85,2.21,1.7,3.315,2.55c1.105,0.85,2.295,1.615,3.485,2.38c1.19,0.765,2.465,1.53,3.655,2.21
	c1.275,0.68,2.55,1.445,3.825,2.04c1.275,0.68,2.635,1.275,3.995,1.87c1.36,0.595,2.805,1.19,4.165,1.7
	c1.445,0.51,2.89,1.02,4.42,1.53c1.19,0.425,2.465,0.765,3.74,1.105c0.255,0.085,0.595,0.17,0.85,0.255
	c1.53,0.425,3.06,0.85,4.675,1.275c1.615,0.34,3.23,0.68,4.93,0.935c0.425,0.085,0.85,0.17,1.36,0.17
	c0.34,1.105,0.765,2.125,1.36,2.975c0.765,1.19,1.7,2.21,2.89,3.06c0.425,0.255,0.765,0.595,1.19,0.765
	c0.085,0,0.085,0.085,0.17,0.085c1.615,0.85,3.4,1.36,5.355,1.36c1.36,0,2.635-0.255,3.825-0.68c0.51-0.17,0.935-0.34,1.36-0.595
	c0.085,0,0.17-0.085,0.17-0.085c0.17-0.085,0.34-0.17,0.51-0.255c2.38-1.445,4.25-3.74,5.1-6.46c0-0.085,0-0.17,0.085-0.255
	c0-0.085,0.085-0.17,0.085-0.255c0.255-0.935,0.425-1.87,0.425-2.89c0-3.4-1.445-6.375-3.74-8.5c-1.105-1.02-2.465-1.785-3.91-2.295
	c0,0-0.085,0-0.085-0.085v-2.125v-5.95v-2.295v-1.955v-1.445v-5.95l0,0h-2.295h-1.02h-1.02c-0.51,0-0.51,0-1.696-0.041
	c-1.785-0.085-3.489-0.299-5.274-0.639c-1.615-0.255-3.23-0.68-4.76-1.105s-2.975-0.935-4.335-1.53s-2.72-1.19-3.995-1.955
	c-1.275-0.68-2.465-1.445-3.655-2.295c-1.19-0.765-2.295-1.7-3.315-2.55c-1.02-0.935-2.04-1.87-2.975-2.89s-1.87-2.125-2.72-3.23
	s-1.615-2.295-2.38-3.57c-0.765-1.275-1.36-2.55-1.955-3.91c-0.595-1.445-1.105-2.89-1.53-4.335c-0.17-0.68-0.34-1.36-0.51-2.04
	h2.55h5.865h5.865h5.865h5.865h5.865h5.865h3.06v-3.06v-4.42c0,0-0.51,0-1.445,0c-1.275,0-3.4,0-5.865,0c-1.785,0-3.74,0-5.865,0
	c-1.87,0-3.91,0-5.865,0c-1.955,0-3.995,0-5.865,0c-2.04,0-4.08,0-5.865,0c-2.21,0-4.25,0-5.865,0c-3.06,0-4.93,0-4.93,0
	c0-0.34,0-0.68,0-0.935c0.085-2.295,0.34-4.59,0.85-6.715c0.425-2.04,1.105-3.995,1.87-5.95c3.74-8.925,11.05-16.15,20.315-20.315
	c1.955-0.85,4.08-1.615,6.205-2.21c2.295-0.595,4.675-1.02,7.225-1.275c1.105-0.085,2.295-0.17,3.4-0.17c0.255,0,1.53,0,2.635,0
	c0.85,0,1.615,0,1.615,0s0.255-1.445,0.425-2.04c0-0.085,0.085-0.17,0.085-0.255c0.17-0.51,0.34-1.02,0.595-1.53
	c0.255-0.595,0.51-1.19,0.85-1.785c0.085-0.255,0.255-0.425,0.34-0.68c0.085-0.085,0.17-0.255,0.17-0.34
	c0-0.085,0.085-0.085,0.085-0.17c0-0.085,0.085-0.085,0.085-0.17c0.935-1.53,4.165-5.61,10.88-8.16
	c2.21-0.85,4.845-1.615,7.905-1.955c1.955-0.255,3.995-0.425,6.29-0.34c0.51,0,1.105,0,1.7,0.085c1.275,0.085,2.55,0.17,3.825,0.425
	c1.615,0.255,3.23,0.68,4.76,1.19c1.445,0.51,2.805,1.105,4.165,1.785c1.275,0.68,2.55,1.36,3.74,2.21
	c1.19,0.765,2.295,1.7,3.315,2.635s2.04,1.87,2.975,2.89c0.935,1.02,1.87,2.125,2.72,3.23c0.85,1.19,1.7,2.295,2.38,3.485
	c0.765,1.275,1.53,2.55,2.125,3.74c0.68,1.36,1.36,2.72,1.87,4.08c0.595,1.53,1.105,2.975,1.53,4.335
	c0.34,1.105,0.595,2.21,0.765,3.315c0.255,1.19,0.425,2.295,0.68,3.485c-5.61,4.76-9.265,11.815-9.265,19.805
	c0,14.28,11.56,25.84,25.755,25.84c14.195,0,25.755-11.56,25.755-25.84C-138.458,247.383-150.018,235.823-164.213,235.823z
	 M-352.743,263.618c0-2.635,2.125-4.675,4.675-4.675c2.635,0,4.675,2.125,4.675,4.675c0,2.635-2.125,4.675-4.675,4.675
	C-350.618,268.293-352.743,266.168-352.743,263.618z M-243.943,328.813c0,2.635-2.125,4.675-4.675,4.675
	c-2.635,0-4.675-2.125-4.675-4.675c0-2.635,2.125-4.675,4.675-4.675C-246.068,324.138-243.943,326.263-243.943,328.813z
	 M-230.768,194.853c-2.465,0.68-4.675,1.615-6.715,2.635c-6.46,3.57-10.455,8.84-12.665,12.75c-1.445,2.55-2.125,4.42-2.295,4.845
	c0,0.085,0,0.085,0,0.085c-1.02,0.085-1.955,0.17-2.89,0.34c-1.7,0.255-3.315,0.51-4.93,0.935c-1.955,0.425-3.91,1.02-5.695,1.7
	c-2.635,0.935-5.1,2.125-7.48,3.485c-7.395,4.25-13.515,10.37-17.595,17.595c-1.275,2.295-2.38,4.76-3.23,7.31
	c-0.595,1.785-1.105,3.655-1.445,5.525c-0.34,1.53-0.51,3.06-0.68,4.675c-0.085,1.19-0.17,2.38-0.17,3.57c0,0.255,0,0.425,0,0.68
	c0,1.87,0.17,3.655,0.425,5.525c0.255,1.7,0.595,3.315,1.02,4.93c0.425,1.53,0.935,2.975,1.445,4.42c0.51,1.36,1.19,2.72,1.87,4.08
	c0.68,1.275,1.36,2.55,2.125,3.74s1.615,2.38,2.465,3.485s1.785,2.125,2.72,3.145c0.935,1.02,1.955,1.955,2.975,2.89
	c1.02,0.935,2.125,1.785,3.23,2.635c1.105,0.85,2.295,1.615,3.57,2.38c1.275,0.765,2.465,1.445,3.825,2.125
	c1.36,0.68,2.72,1.275,4.08,1.785c1.445,0.595,2.89,1.02,4.42,1.445c1.53,0.425,3.145,0.85,4.845,1.105c1.7,0.255,3.4,0.51,5.1,0.68
	v0.17v5.95v5.95v0.595c0,0,0,0-0.085,0c-1.36,0.51-2.635,1.275-3.74,2.21c-14.96-1.53-28.815-7.225-39.78-16.575
	c-0.765-0.595-1.445-1.275-2.21-1.955c-13.005-12.07-20.23-28.56-20.23-46.24s7.14-34.085,20.23-46.24
	c11.815-10.965,27.285-17.51,44.115-18.7c0.51,0,1.105-0.085,1.615-0.085c0.68,0,1.445-0.085,2.125-0.085
	c0.68,0,1.275-0.085,1.955-0.085c0.68,0,1.36,0,2.04,0.085c1.275,0,2.55,0.085,3.825,0.17c1.19,0.085,2.465,0.17,3.655,0.34
	s2.38,0.34,3.485,0.51s2.295,0.425,3.4,0.68c1.105,0.255,2.21,0.51,3.23,0.765c1.36,0.34,2.635,0.68,3.91,1.105
	C-226.858,194.003-228.898,194.343-230.768,194.853z M-164.213,274.668c-7.225,0-13.09-5.865-13.09-13.09s5.865-13.09,13.09-13.09
	c7.225,0,13.09,5.865,13.09,13.09S-156.988,274.668-164.213,274.668z"/>
<g>
	<path class="st0" d="M-320.684,344.211h6.688v11.88c1.584-2.024,3.52-3.784,6.952-3.784c5.104,0,8.008,3.344,8.008,8.8v15.312
		h-6.688v-13.2c0-3.168-1.496-4.84-4.048-4.84s-4.224,1.672-4.224,4.84v13.2h-6.688V344.211z"/>
	<path class="st0" d="M-289.269,381.875l2.288-4.84c0.88,0.528,2.024,0.88,2.904,0.88c1.144,0,1.76-0.352,2.288-1.584l-9.24-23.672
		h7.128l5.368,16.104l5.192-16.104h6.952l-9.064,24.2c-1.848,4.84-3.784,6.6-7.744,6.6
		C-285.749,383.547-287.509,382.931-289.269,381.875z"/>
	<path class="st0" d="M-258.409,352.747h6.688v3.432c1.672-2.2,3.872-3.872,7.392-3.872c5.544,0,10.736,4.312,10.736,12.232v0.088
		c0,7.92-5.192,12.232-10.736,12.232c-3.52,0-5.72-1.584-7.392-3.52v10.12h-6.688V352.747z M-240.369,364.627L-240.369,364.627
		c0-3.96-2.64-6.6-5.808-6.6c-3.08,0-5.72,2.64-5.72,6.512v0.088c0,3.96,2.64,6.512,5.72,6.512
		C-243.009,371.139-240.369,368.587-240.369,364.627z"/>
	<path class="st0" d="M-224.721,344.211h6.688v11.88c1.584-2.024,3.52-3.784,6.952-3.784c5.104,0,8.008,3.344,8.008,8.8v15.312
		h-6.688v-13.2c0-3.168-1.496-4.84-4.048-4.84s-4.224,1.672-4.224,4.84v13.2h-6.688L-224.721,344.211L-224.721,344.211z"/>
	<path class="st0" d="M-193.218,381.875l2.2-4.84c0.88,0.528,2.024,0.88,2.904,0.88c1.144,0,1.76-0.352,2.288-1.584l-9.24-23.672
		h7.128l5.368,16.104l5.192-16.104h6.952l-9.064,24.2c-1.76,4.84-3.784,6.6-7.744,6.6
		C-189.698,383.547-191.546,382.931-193.218,381.875z"/>
</g>
</svg>
